<?xml version="1.0" encoding="UTF-8" standalone="no"?>
<!-- Created with Inkscape (http://www.inkscape.org/) -->

<svg
   xmlns:dc="http://purl.org/dc/elements/1.1/"
   xmlns:cc="http://creativecommons.org/ns#"
   xmlns:rdf="http://www.w3.org/1999/02/22-rdf-syntax-ns#"
   xmlns:svg="http://www.w3.org/2000/svg"
   xmlns="http://www.w3.org/2000/svg"
   xmlns:sodipodi="http://sodipodi.sourceforge.net/DTD/sodipodi-0.dtd"
   xmlns:inkscape="http://www.inkscape.org/namespaces/inkscape"
   width="200.19296mm"
   height="120.14128mm"
   viewBox="0 0 200.19297 120.14128"
   version="1.1"
   id="svg176"
   inkscape:version="0.92.3 (2405546, 2018-03-11)"
   sodipodi:docname="bot1.4top.svg">
  <defs
     id="defs170" />
  <sodipodi:namedview
     id="base"
     pagecolor="#ffffff"
     bordercolor="#666666"
     borderopacity="1.0"
     inkscape:pageopacity="0.0"
     inkscape:pageshadow="2"
     inkscape:zoom="0.7"
     inkscape:cx="416.25654"
     inkscape:cy="212.82236"
     inkscape:document-units="mm"
     inkscape:current-layer="layer1"
     showgrid="false"
     fit-margin-top="0"
     fit-margin-left="0"
     fit-margin-right="0"
     fit-margin-bottom="0"
     inkscape:window-width="1366"
     inkscape:window-height="745"
     inkscape:window-x="-8"
     inkscape:window-y="-8"
     inkscape:window-maximized="1"
     inkscape:measure-start="-182.857,107.143"
     inkscape:measure-end="18.5714,221.429" />
  <metadata
     id="metadata173">
    <rdf:RDF>
      <cc:Work
         rdf:about="">
        <dc:format>image/svg+xml</dc:format>
        <dc:type
           rdf:resource="http://purl.org/dc/dcmitype/StillImage" />
        <dc:title></dc:title>
      </cc:Work>
    </rdf:RDF>
  </metadata>
  <g
     inkscape:label="Layer 1"
     inkscape:groupmode="layer"
     id="layer1"
     transform="translate(21.504579,-69.882256)">
    <g
       id="g77"
       transform="rotate(-90,83.158369,129.94928)">
      <path
         class="st0"
         d="M 23.624653,204.31072"
         id="path211"
         inkscape:connector-curvature="0"
         style="fill:none;stroke:#ff0000;stroke-width:0.33359259;stroke-miterlimit:10" />
      <rect
         x="-79.055786"
         y="28.20051"
         transform="rotate(-90)"
         class="st2"
         width="3.0015955"
         height="1.5015359"
         id="rect213"
         style="fill:#ffffff;stroke:#ff0000;stroke-width:0.33359259;stroke-miterlimit:10" />
      <rect
         x="81.541443"
         y="49.570934"
         class="st2"
         width="3.0030718"
         height="1.5007979"
         id="rect215"
         style="fill:#ffffff;stroke:#ff0000;stroke-width:0.33359259;stroke-miterlimit:10" />
      <rect
         x="-79.372246"
         y="136.90851"
         transform="rotate(-90)"
         class="st2"
         width="3.0015955"
         height="1.5015359"
         id="rect217"
         style="fill:#ffffff;stroke:#ff0000;stroke-width:0.33359259;stroke-miterlimit:10" />
      <line
         style="fill:none;stroke:#ff0000;stroke-width:0.3513394;stroke-miterlimit:10"
         id="line219"
         y2="205.07779"
         x2="129.56354"
         y1="205.07779"
         x1="136.22572"
         class="st0" />
      <line
         style="fill:none;stroke:#ff0000;stroke-width:0.3513394;stroke-miterlimit:10"
         id="line221"
         y2="205.07779"
         x2="119.57032"
         y1="205.07779"
         x1="126.23244"
         class="st0" />
      <line
         style="fill:none;stroke:#ff0000;stroke-width:0.3513394;stroke-miterlimit:10"
         id="line223"
         y2="205.07779"
         x2="109.57697"
         y1="205.07779"
         x1="116.23916"
         class="st0" />
      <line
         style="fill:none;stroke:#ff0000;stroke-width:0.3513394;stroke-miterlimit:10"
         id="line225"
         y2="205.07779"
         x2="99.583717"
         y1="205.07779"
         x1="106.24594"
         class="st0" />
      <line
         style="fill:none;stroke:#ff0000;stroke-width:0.3513394;stroke-miterlimit:10"
         id="line227"
         y2="205.07779"
         x2="89.5905"
         y1="205.07779"
         x1="96.252625"
         class="st0" />
      <line
         style="fill:none;stroke:#ff0000;stroke-width:0.3513394;stroke-miterlimit:10"
         id="line229"
         y2="205.07779"
         x2="79.597214"
         y1="205.07779"
         x1="86.259369"
         class="st0" />
      <line
         style="fill:none;stroke:#ff0000;stroke-width:0.3513394;stroke-miterlimit:10"
         id="line231"
         y2="205.07779"
         x2="69.603859"
         y1="205.07779"
         x1="76.266083"
         class="st0" />
      <line
         style="fill:none;stroke:#ff0000;stroke-width:0.3513394;stroke-miterlimit:10"
         id="line233"
         y2="205.07779"
         x2="59.610607"
         y1="205.07779"
         x1="66.272797"
         class="st0" />
      <line
         style="fill:none;stroke:#ff0000;stroke-width:0.3513394;stroke-miterlimit:10"
         id="line235"
         y2="205.07779"
         x2="49.61739"
         y1="205.07779"
         x1="56.27948"
         class="st0" />
      <line
         style="fill:none;stroke:#ff0000;stroke-width:0.3513394;stroke-miterlimit:10"
         id="line237"
         y2="205.07779"
         x2="39.624088"
         y1="205.07779"
         x1="46.286259"
         class="st0" />
      <line
         style="fill:none;stroke:#ff0000;stroke-width:0.3513394;stroke-miterlimit:10"
         id="line239"
         y2="205.07779"
         x2="29.630785"
         y1="205.07779"
         x1="36.292976"
         class="st0" />
      <path
         class="st0"
         d="M 23.624653,204.31072"
         id="path267"
         inkscape:connector-curvature="0"
         style="fill:none;stroke:#ff0000;stroke-width:0.33359259;stroke-miterlimit:10" />
      <g
         transform="matrix(0.33034078,0,0,0.33354769,-256.30634,17.892809)"
         id="g508">
        <line
           class="st0"
           x1="1187.1293"
           y1="259.62762"
           x2="1167.0326"
           y2="259.62762"
           id="line243"
           style="fill:none;stroke:#ff0000;stroke-width:1.05657852;stroke-miterlimit:10" />
        <line
           class="st0"
           x1="1156.9843"
           y1="259.62762"
           x2="1136.8876"
           y2="259.62762"
           id="line245"
           style="fill:none;stroke:#ff0000;stroke-width:1.05657852;stroke-miterlimit:10" />
        <line
           class="st0"
           x1="1126.8392"
           y1="259.62762"
           x2="1106.7426"
           y2="259.62762"
           id="line247"
           style="fill:none;stroke:#ff0000;stroke-width:1.05657852;stroke-miterlimit:10" />
        <line
           class="st0"
           x1="1096.6942"
           y1="259.62762"
           x2="1076.5975"
           y2="259.62762"
           id="line249"
           style="fill:none;stroke:#ff0000;stroke-width:1.05657852;stroke-miterlimit:10" />
        <line
           class="st0"
           x1="1066.5492"
           y1="259.62762"
           x2="1046.4525"
           y2="259.62762"
           id="line251"
           style="fill:none;stroke:#ff0000;stroke-width:1.05657852;stroke-miterlimit:10" />
        <line
           class="st0"
           x1="1036.4042"
           y1="259.62762"
           x2="1016.3075"
           y2="259.62762"
           id="line253"
           style="fill:none;stroke:#ff0000;stroke-width:1.05657852;stroke-miterlimit:10" />
        <line
           class="st0"
           x1="1006.2591"
           y1="259.62762"
           x2="986.16241"
           y2="259.62762"
           id="line255"
           style="fill:none;stroke:#ff0000;stroke-width:1.05657852;stroke-miterlimit:10" />
        <line
           class="st0"
           x1="976.11407"
           y1="259.62762"
           x2="956.0174"
           y2="259.62762"
           id="line257"
           style="fill:none;stroke:#ff0000;stroke-width:1.05657852;stroke-miterlimit:10" />
        <line
           class="st0"
           x1="945.96906"
           y1="259.62762"
           x2="925.87238"
           y2="259.62762"
           id="line259"
           style="fill:none;stroke:#ff0000;stroke-width:1.05657852;stroke-miterlimit:10" />
        <line
           class="st0"
           x1="915.82404"
           y1="259.62762"
           x2="895.72736"
           y2="259.62762"
           id="line261"
           style="fill:none;stroke:#ff0000;stroke-width:1.05657852;stroke-miterlimit:10" />
        <line
           class="st0"
           x1="885.67902"
           y1="259.62762"
           x2="865.58234"
           y2="259.62762"
           id="line263"
           style="fill:none;stroke:#ff0000;stroke-width:1.05657852;stroke-miterlimit:10" />
        <path
           class="st3"
           d="m 876.18892,281.12522 h -2.00967 l -5.69406,-1.99978 c -0.22329,-0.1 -0.44659,-0.29997 -0.44659,-0.49995 0,-0.19997 0.11165,-0.39995 0.44659,-0.49994 l 5.69406,-1.99978 h 2.00967 c 0.11165,0 0.33495,0 0.4466,0.1 0.11164,0.1 0.11164,0.19998 0.11164,0.29997 0,0.1 0,0.29996 -0.11164,0.29996 -0.11165,0 -0.2233,0.1 -0.4466,0.1 h -1.78637 l -4.24263,1.49984 4.24263,1.49983 h 1.78637 c 0.11165,0 0.33495,0 0.4466,0.1 0.11164,0.1 0.11164,0.19998 0.11164,0.29996 0,0.1 0,0.29997 -0.11164,0.29997 -0.11165,0.39996 -0.33495,0.49995 -0.4466,0.49995 z"
           id="path269"
           inkscape:connector-curvature="0"
           style="fill:none;stroke:#0000ff;stroke-width:0.26414463;stroke-miterlimit:10" />
        <path
           class="st3"
           d="m 869.15508,283.82492 v 1.49983 h 6.4756 v -1.49983 c 0,-0.1 0,-0.29997 0.11165,-0.29997 0.11165,0 0.2233,-0.1 0.33494,-0.1 0.11165,0 0.33495,0 0.33495,0.1 0,0.1 0.11165,0.19998 0.11165,0.29997 v 2.49972 h -7.59208 v 0.99989 h 2.56791 c 0.11165,0 0.22329,0 0.33494,0.1 0.11165,0.1 0.11165,0.19997 0.11165,0.29996 0,0.1 0,0.29997 -0.11165,0.29997 -0.11165,0 -0.22329,0.1 -0.33494,0.1 h -2.79121 c -0.11165,0 -0.33494,0 -0.33494,-0.1 0,-0.1 -0.11165,-0.19998 -0.11165,-0.29997 v -3.99955 c 0,-0.1 0,-0.29997 0.11165,-0.29997 0.11164,0 0.22329,-0.1 0.44659,-0.1 0.11165,0 0.2233,0 0.33494,0.1 0.11165,0.1 0,0.19998 0,0.39996 z"
           id="path271"
           inkscape:connector-curvature="0"
           style="fill:none;stroke:#0000ff;stroke-width:0.26414463;stroke-miterlimit:10" />
      </g>
      <path
         sodipodi:nodetypes="ccccccccccccccccccccccccccccc"
         inkscape:connector-curvature="0"
         id="path493"
         d="m 23.571443,44.137873 -0.314074,6.863788 3.596886,0.183711 0.07939,12.852172 -3.536074,0.173503 0.234674,41.050453 h 3.316481 v 12.00519 h -3.316481 v 96.04152 h 3.316481 v 12.0052 H 139.70902 v -12.0052 h 3.31645 v -96.04152 h -3.31645 V 105.2615 h 3.31645 l 0.0339,-40.530134 -4.44109,-0.173302 0.0758,-13.647504 4.30091,-2.12e-4 0.0304,-7.06832 -57.508224,-18.032469 v 3.079914 l -3.846618,-0.295845 v -3.079914 z"
         style="fill:none;fill-rule:evenodd;stroke:#ff0000;stroke-width:0.33177894px;stroke-linecap:butt;stroke-linejoin:miter;stroke-opacity:1" />
      <ellipse
         ry="8.5397034"
         rx="7.9530139"
         style="fill:#060000;fill-opacity:0;fill-rule:evenodd;stroke:#ff0000;stroke-width:0.27400646;stroke-linecap:butt;stroke-linejoin:miter;stroke-miterlimit:4;stroke-dasharray:none;stroke-opacity:1"
         id="path3340-6-19-9-03-93"
         cx="72.181511"
         cy="89.330566" />
      <ellipse
         ry="8.6561184"
         rx="7.9520907"
         style="fill:#000000;fill-opacity:0;fill-rule:evenodd;stroke:#ff0000;stroke-width:0.27585179;stroke-linecap:butt;stroke-linejoin:miter;stroke-miterlimit:4;stroke-dasharray:none;stroke-opacity:1"
         id="path3340-6-19-9-03-93-0"
         cx="94.102333"
         cy="89.642311" />
      <rect
         y="70.416771"
         x="80.478523"
         height="3.9825785"
         width="8.9608011"
         id="rect5048"
         style="fill:#ffffff;fill-opacity:0;fill-rule:evenodd;stroke:#000000;stroke-width:0.28200001;stroke-linecap:square;stroke-linejoin:bevel;stroke-miterlimit:4;stroke-dasharray:none;stroke-dashoffset:0;stroke-opacity:0" />
      <ellipse
         ry="3.6945484"
         rx="3.4407282"
         style="fill:#060000;fill-opacity:0;fill-rule:evenodd;stroke:#ff0000;stroke-width:0.11854395;stroke-linecap:butt;stroke-linejoin:miter;stroke-miterlimit:4;stroke-dasharray:none;stroke-opacity:1"
         id="path3340-6-19-9-03-93-78"
         cx="55.105198"
         cy="90.145233" />
    </g>
  </g>
</svg>
